<svg id="Layer_1" data-name="Layer 1" xmlns="http://www.w3.org/2000/svg" xmlns:xlink="http://www.w3.org/1999/xlink" viewBox="0 0 767.2 371.72"><defs><style>.cls-1{fill:none;}.cls-2{clip-path:url(#clip-path);}.cls-3{fill:#939399;}.cls-4{fill:#d5d7d8;}.cls-5{fill:#2F3E8B;}.cls-6{fill:#acb0d6;}</style><clipPath id="clip-path" transform="translate(169.06 -9.51)"><rect class="cls-1" x="-169.06" y="9.51" width="767.21" height="371.72"/></clipPath></defs><g class="cls-2"><path class="cls-3" d="M194.66,210c-18.06,0-36,13.61-36,36.4,0,22.09,20.44,35.83,38.22,35.83,19.56,0,29-6.13,45.47-2.8a44.75,44.75,0,0,1,23.31,12.21,4.17,4.17,0,0,0,5.19.82c1.43-1,2.4-2.73,1.43-7-2.25-10-7.55-21.09-13.7-30.59C246.47,236.15,222,210,194.66,210" transform="translate(169.06 -9.51)"/><path class="cls-4" d="M-113.53,253.22c-27.85,0-55.53,21-55.53,56.12,0,34.05,31.51,55.22,58.92,55.22,30.13,0,44.68-9.44,70.08-4.31,19.87,4,30.6,13.72,35.92,18.82,2.56,2.44,5.79,2.73,8,1.26s3.69-4.21,2.2-10.79C2.6,354.2-5.56,337-15,322.39c-18.63-28.78-56.41-69.17-98.48-69.17" transform="translate(169.06 -9.51)"/><path class="cls-5" d="M447.61,9.51c29.11,0,58.05,21.94,58.05,58.67,0,35.59-32.94,57.73-61.59,57.73-31.51,0-46.72-9.87-73.28-4.51-20.77,4.2-32,14.35-37.55,19.68-2.67,2.55-6.05,2.86-8.37,1.31s-3.86-4.4-2.3-11.27c3.62-16,12.16-34,22.07-49.3,19.48-30.08,59-72.31,103-72.31" transform="translate(169.06 -9.51)"/><path class="cls-6" d="M577.39,189.67a20.53,20.53,0,0,1,20.76,21c0,12.73-11.78,20.64-22,20.64-11.26,0-16.7-3.53-26.19-1.61a25.74,25.74,0,0,0-13.43,7,2.4,2.4,0,0,1-3,.47c-.83-.55-1.39-1.58-.83-4a58,58,0,0,1,7.9-17.62c7-10.76,21.08-25.85,36.81-25.85" transform="translate(169.06 -9.51)"/></g></svg>