<?xml version="1.0" encoding="utf-8"?>
<!-- Generator: Adobe Illustrator 24.0.2, SVG Export Plug-In . SVG Version: 6.00 Build 0)  -->
<svg version="1.1" id="Calque_1" xmlns="http://www.w3.org/2000/svg" xmlns:xlink="http://www.w3.org/1999/xlink" x="0px" y="0px"
	 viewBox="0 0 400 381" style="enable-background:new 0 0 400 381;" xml:space="preserve">
<style type="text/css">
	.st0{fill:#004079;}
</style>
<path class="st0" d="M86.4,16.6C26.9,47.3,9.2,110,8.7,176.9c-0.1,16.8,2.5,34,10.2,48.9c9.3,17.9,25.2,31.4,41.8,42.7
	c27,18.4,57.5,32.7,79.8,56.6c8,8.5,14.9,18.2,24.2,25.3c9.7,7.3,21.6,11.3,33.5,13.8c47.1,9.9,97-2.8,138.2-27.7
	c15.4-9.3,30.2-20.7,39.4-36.1c7.4-12.5,10.8-27,12.7-41.4c2.1-15.5,2.5-31.8-3-46.4c-6.7-17.6-21.2-31-36.4-42.1
	c-38-27.5-84.7-45.6-112.4-83.5c-12.6-17.2-20.5-37.8-35.2-53.3c-5.9-6.3-13.1-11.6-21.3-14.3C180.3,19.3,125.1-3.3,86.4,16.6z"/>
</svg>
