<?xml version="1.0" encoding="utf-8"?>
<!-- Generator: Adobe Illustrator 17.0.0, SVG Export Plug-In . SVG Version: 6.00 Build 0)  -->
<!DOCTYPE svg PUBLIC "-//W3C//DTD SVG 1.1//EN" "http://www.w3.org/Graphics/SVG/1.1/DTD/svg11.dtd">
<svg version="1.1" xmlns="http://www.w3.org/2000/svg" xmlns:xlink="http://www.w3.org/1999/xlink" x="0px" y="0px" width="540px"
	 height="470px" viewBox="0 0 540 470" style="enable-background:new 0 0 540 470;" xml:space="preserve">
<style type="text/css">
	.st0{fill:#F7F7F7;}
	.st1{fill:#87BBFD;}
	.st2{fill:#6772E5;}
	.st3{fill:#FFFFFF;}
	.st4{fill:#E2E2E2;}
	.st5{fill:none;stroke:#B7B7B7;stroke-width:6;stroke-miterlimit:10;}
	.st6{fill:none;stroke:#FFFFFF;stroke-width:6;stroke-miterlimit:10;}
	.st7{fill:#1D3663;}
	.st8{fill:none;stroke:#E2E2E2;stroke-width:2;stroke-miterlimit:10;}
	.st9{fill:none;stroke:#B7B7B7;stroke-width:4;stroke-miterlimit:10;}
	.st10{fill:#FA755A;}
	.st11{fill:#4D4D4D;}
	.st12{fill:#FFC7EE;}
	.st13{fill:#FFFFFF;stroke:#000000;stroke-width:2;stroke-linecap:round;stroke-linejoin:round;stroke-miterlimit:10;}
	.st14{fill:none;stroke:#000000;stroke-width:2;stroke-linecap:round;stroke-linejoin:round;stroke-miterlimit:10;}
	.st15{fill:#F9E8D8;}
	.st16{fill:#FDD760;}
	.st17{fill:#E2C7B5;}
	.st18{fill:#D7C1AA;}
	.st19{fill:#A2816C;}
	.st20{fill:#F0D5D1;}
	.st21{fill:#FBF1E8;}
	.st22{fill:#FF0000;}
	.st23{fill:none;stroke:#9251AC;stroke-width:4;stroke-linecap:round;stroke-linejoin:round;stroke-miterlimit:10;}
	.st24{fill:#FFFFFF;stroke:#43458B;stroke-width:4;stroke-linecap:round;stroke-linejoin:round;stroke-miterlimit:10;}
	.st25{stroke:#000000;stroke-width:2;stroke-linecap:round;stroke-linejoin:round;stroke-miterlimit:10;}
	.st26{fill:#9251AC;stroke:#9251AC;stroke-width:4;stroke-linecap:round;stroke-linejoin:round;stroke-miterlimit:10;}
	.st27{fill:#D6FACF;}
	.st28{fill:none;stroke:#06A978;stroke-width:4;stroke-linecap:round;stroke-linejoin:round;stroke-miterlimit:10;}
	.st29{fill:#06A978;stroke:#06A978;stroke-width:4;stroke-linecap:round;stroke-linejoin:round;stroke-miterlimit:10;}
	.st30{fill:#FC8B75;}
	.st31{fill:url(#SVGID_1_);}
	.st32{fill:url(#SVGID_2_);}
	.st33{fill:url(#SVGID_3_);}
	.st34{fill:#936F5C;}
	.st35{fill:#EFEFEF;}
	.st36{fill:#D6D6D6;}
	.st37{fill:#EF5637;}
	.st38{fill:#F6BD29;}
	.st39{fill:#FFE08A;}
	.st40{fill:#D3BFA2;}
	.st41{fill:none;stroke:#43458B;stroke-linejoin:round;stroke-miterlimit:10;}
	.st42{fill:#43458B;}
	.st43{fill:none;stroke:#B7B7B7;stroke-width:2;stroke-miterlimit:10;}
	.st44{fill:#B7B7B7;}
	.st45{clip-path:url(#SVGID_5_);}
	.st46{fill:none;stroke:#A8A8A8;stroke-width:2;stroke-miterlimit:10;}
	.st47{clip-path:url(#SVGID_7_);}
	.st48{clip-path:url(#SVGID_9_);}
	.st49{clip-path:url(#SVGID_11_);}
	.st50{fill:#F9F9F9;}
	.st51{fill:#BACEEC;}
	.st52{fill:#9E8F7A;}
	.st53{fill:#E6E6E6;}
	.st54{fill:#F6BE29;}
	.st55{fill:#9F3714;}
	.st56{fill:#BFC9D0;}
	.st57{fill:#FFFFFF;stroke:#FFFFFF;stroke-width:6;stroke-linecap:round;stroke-linejoin:round;stroke-miterlimit:10;}
	.st58{fill:#FFFFFF;stroke:#C77D5E;stroke-width:2;stroke-linecap:round;stroke-linejoin:round;stroke-miterlimit:10;}
	.st59{fill:none;stroke:#C77D5E;stroke-width:2;stroke-linecap:round;stroke-linejoin:round;stroke-miterlimit:10;}
	.st60{fill:none;stroke:#FFFFFF;stroke-width:7;stroke-linejoin:round;stroke-miterlimit:10;}
	.st61{fill:#FFFFFF;stroke:#C77D5E;stroke-width:2;stroke-linejoin:round;stroke-miterlimit:10;}
	.st62{fill:#EBEFF2;}
	.st63{fill:#F2F2F2;}
	.st64{fill:#77290F;}
	.st65{fill:#8995AB;}
	.st66{display:none;}
	.st67{display:inline;fill:none;stroke:#A8B4C6;stroke-linecap:round;stroke-miterlimit:10;}
	.st68{display:inline;fill:none;stroke:#BACEEC;stroke-linecap:round;stroke-miterlimit:10;}
	.st69{display:inline;fill:none;stroke:#BACEEC;stroke-miterlimit:10;}
	.st70{fill:#AEA18B;}
	.st71{fill:#BBBBBB;}
	.st72{fill:#8F979C;}
	.st73{fill:#E3B14E;}
	.st74{fill:#06A978;}
	.st75{fill:#3ECF8E;}
	.st76{opacity:0.5;fill:#BDC1F0;}
	.st77{opacity:0.5;fill:#7795F8;}
	.st78{opacity:0.5;fill:#555ABF;}
	.st79{fill:#555ABF;}
	.st80{fill:#7795F8;}
	.st81{fill:#B7D7FF;}
	.st82{fill:#C4DEFF;}
	.st83{fill:#DAEAFF;}
</style>
<g id="Calque_1">
</g>
<g id="Calque_2">
</g>
<g id="Calque_3">
</g>
<g id="Calque_4">
</g>
<g id="Calque_5">
</g>
<g id="Calque_6">
	<g>
		<path class="st76" d="M119.517,178.082c65.37-45.57,45.563-136.748,169.884-172.718C392.809-24.555,440.1,73.17,463.202,236.558
			c7.056,49.901-0.262,132.075-60.641,163.822c-36.447,19.164-184.669,66.472-287.41,41.627
			C34.29,422.452-14.856,320.107,4.038,270.285C24.564,216.16,71.32,211.68,119.517,178.082z"/>
		<path class="st77" d="M146.169,182.849c51.799-44.055,66.922-149.06,157.711-165.334
			c94.774-16.988,168.847,45.512,191.273,204.126c6.849,48.443-30.601,140.606-89.215,171.426
			c-35.382,18.604-145.222,102.506-251.652,69.197C62.16,433.432,0.275,330.378,26.676,273.11
			C47.626,227.669,102.731,219.793,146.169,182.849z"/>
		<path class="st78" d="M162.021,184.346c50.97-43.35,58.261-122.577,152.486-149.404c95.985-27.329,170.283,68.394,192.351,224.471
			c6.74,47.668-27.534,89.306-81.912,125.19c-36.637,24.177-178.225,89.64-250.355,70.624
			C97.941,435.019-5.23,360.793,49.812,267.143C65.362,240.687,119.279,220.698,162.021,184.346z"/>
		<path class="st79" d="M181.95,184.104c45.878-39.717,80.17-123.726,163.915-133.592c89.9-10.591,172.304,68.577,193.559,209.943
			c6.492,43.175-43.069,76.08-92.096,109.054c-33.032,22.216-202.75,81.216-269.869,72.702
			C97.847,432.114-10.775,372.875,63.756,264.474C79.526,241.538,143.478,217.411,181.95,184.104z"/>
	</g>
</g>
</svg>
